<svg width="28" height="28" viewBox="0 0 28 28" fill="none" xmlns="http://www.w3.org/2000/svg">
<rect width="28" height="28" fill="#E5E5E5"/>
<g id="Wallet" clip-path="url(#clip0_0_1)">
<rect width="414" height="896" transform="translate(-37 -617)" fill="white"/>
<g id="Rectangle 18" filter="url(#filter0_d_0_1)">
<path d="M-37 -422C-37 -438.569 -23.5685 -452 -7 -452H347C363.569 -452 377 -438.569 377 -422V279H-37V-422Z" fill="white"/>
</g>
<g id="Frame 22">
<g id="Frame 9">
<rect x="-11" y="-11" width="50" height="50" rx="8" fill="#F0F7F5"/>
<g id="lightning-fill 1" clip-path="url(#clip1_0_1)">
<path id="Vector" d="M23.6032 12.9281C23.5707 12.7871 23.5037 12.6563 23.4083 12.5475C23.3128 12.4387 23.1919 12.3552 23.0563 12.3047L16.7563 9.94215L18.3532 1.92497C18.3899 1.73926 18.3662 1.54667 18.2855 1.37543C18.2048 1.20418 18.0713 1.06329 17.9047 0.973406C17.7365 0.883908 17.5434 0.852543 17.3554 0.884194C17.1675 0.915844 16.9953 1.00873 16.8657 1.14841L4.61565 14.2734C4.51527 14.3775 4.44265 14.5052 4.40443 14.6447C4.36621 14.7842 4.36362 14.9311 4.3969 15.0718C4.43114 15.2121 4.49874 15.342 4.59395 15.4506C4.68916 15.5591 4.80917 15.6431 4.94378 15.6953L11.2438 18.0578L9.6469 26.075C9.61018 26.2607 9.6339 26.4533 9.71461 26.6245C9.79531 26.7957 9.92874 26.9366 10.0953 27.0265C10.2209 27.0899 10.3594 27.1236 10.5 27.125C10.6189 27.1255 10.7366 27.1014 10.8457 27.0544C10.9549 27.0073 11.0532 26.9383 11.1344 26.8515L23.3844 13.7265C23.4848 13.6224 23.5574 13.4947 23.5956 13.3552C23.6339 13.2157 23.6364 13.0688 23.6032 12.9281Z" fill="#438883"/>
</g>
</g>
</g>
</g>
<defs>
<filter id="filter0_d_0_1" x="-75.9516" y="-466.468" width="491.903" height="808.903" filterUnits="userSpaceOnUse" color-interpolation-filters="sRGB">
<feFlood flood-opacity="0" result="BackgroundImageFix"/>
<feColorMatrix in="SourceAlpha" type="matrix" values="0 0 0 0 0 0 0 0 0 0 0 0 0 0 0 0 0 0 127 0" result="hardAlpha"/>
<feOffset dy="24.4839"/>
<feGaussianBlur stdDeviation="19.4758"/>
<feComposite in2="hardAlpha" operator="out"/>
<feColorMatrix type="matrix" values="0 0 0 0 0 0 0 0 0 0 0 0 0 0 0 0 0 0 0.08 0"/>
<feBlend mode="normal" in2="BackgroundImageFix" result="effect1_dropShadow_0_1"/>
<feBlend mode="normal" in="SourceGraphic" in2="effect1_dropShadow_0_1" result="shape"/>
</filter>
<clipPath id="clip0_0_1">
<rect width="414" height="896" fill="white" transform="translate(-37 -617)"/>
</clipPath>
<clipPath id="clip1_0_1">
<rect width="28" height="28" fill="white"/>
</clipPath>
</defs>
</svg>
